<svg xmlns="http://www.w3.org/2000/svg" xmlns:xlink="http://www.w3.org/1999/xlink" width="1920" zoomAndPan="magnify" viewBox="0 0 2880 1619.99993" height="1080" preserveAspectRatio="xMidYMid meet" version="1.0"><defs><g/><clipPath id="a02b89494a"><path d="M 5.136719 233.503906 L 2821 233.503906 L 2821 634 L 5.136719 634 Z M 5.136719 233.503906 " clip-rule="nonzero"/></clipPath></defs><g clip-path="url(#a02b89494a)"><path fill="#000000" d="M 2594.910156 521.804688 C 2559.761719 515.183594 2524.972656 506.464844 2490.730469 495.804688 C 2456.527344 485.015625 2422.714844 472.699219 2389.273438 459.097656 C 2355.839844 445.457031 2322.617188 430.878906 2289.347656 415.730469 L 2188.695312 369.601562 C 2154.71875 354.167969 2120.144531 338.960938 2084.523438 324.546875 C 2075.570312 320.992188 2066.707031 317.347656 2057.589844 313.941406 L 2043.996094 308.761719 L 2030.242188 303.746094 C 2021.132812 300.347656 2011.71875 297.25 2002.464844 293.996094 C 1997.808594 292.410156 1993.058594 290.90625 1988.359375 289.363281 C 1983.640625 287.851562 1978.984375 286.253906 1974.183594 284.832031 C 1964.632812 281.941406 1955.132812 278.984375 1945.398438 276.347656 C 1940.546875 275.011719 1935.746094 273.597656 1930.863281 272.332031 L 1916.160156 268.648438 C 1906.355469 266.207031 1896.609375 263.644531 1886.636719 261.625 L 1871.761719 258.421875 C 1866.796875 257.382812 1861.859375 256.238281 1856.832031 255.40625 L 1826.785156 250 L 1796.519531 245.492188 C 1793.988281 245.128906 1791.480469 244.707031 1788.953125 244.410156 L 1781.34375 243.511719 L 1766.128906 241.722656 C 1761.050781 241.164062 1756.015625 240.445312 1750.914062 240.03125 L 1735.648438 238.683594 C 1694.960938 235.113281 1654.09375 233.472656 1613.414062 233.867188 C 1572.738281 234.277344 1532.242188 236.285156 1492.136719 239.917969 C 1411.890625 247.136719 1333.390625 260.738281 1257.078125 278.324219 C 1180.839844 296.160156 1106.726562 318.078125 1034.972656 343.273438 C 999.101562 355.886719 963.6875 369.128906 928.980469 383.296875 C 894.214844 397.363281 860 412.128906 826.382812 427.5625 C 898.367188 403.457031 970.882812 380.671875 1044.738281 361.128906 C 1118.425781 341.320312 1193.328125 324.597656 1268.972656 311.574219 C 1306.792969 305.054688 1344.894531 299.824219 1383.03125 295.519531 C 1402.09375 293.277344 1421.222656 291.628906 1440.324219 289.972656 L 1469.019531 288.003906 C 1478.578125 287.375 1488.160156 287.066406 1497.71875 286.574219 C 1535.972656 284.996094 1574.1875 284.625 1612.171875 285.933594 L 1640.605469 287.253906 C 1650.066406 287.828125 1659.480469 288.601562 1668.910156 289.261719 L 1675.972656 289.773438 L 1683.003906 290.453125 L 1697.066406 291.824219 C 1701.746094 292.308594 1706.441406 292.679688 1711.109375 293.234375 L 1725.070312 294.996094 L 1739.019531 296.746094 C 1743.679688 297.28125 1748.253906 298.136719 1752.878906 298.816406 L 1766.695312 300.96875 L 1773.605469 302.039062 C 1775.90625 302.398438 1778.167969 302.871094 1780.449219 303.285156 L 1807.777344 308.410156 L 1834.761719 314.332031 C 1839.285156 315.25 1843.683594 316.472656 1848.125 317.574219 L 1861.4375 320.910156 C 1870.371094 323 1879.039062 325.636719 1887.777344 328.117188 L 1900.863281 331.855469 C 1905.214844 333.144531 1909.488281 334.566406 1913.796875 335.914062 C 1922.433594 338.558594 1930.933594 341.554688 1939.488281 344.4375 C 2007.707031 368.058594 2072.917969 398.269531 2138.320312 429.992188 C 2203.765625 461.734375 2269.601562 495.199219 2340.265625 525.355469 C 2353.765625 531.113281 2367.46875 536.734375 2381.355469 542.191406 C 2339.515625 545.414062 2297.519531 547.84375 2255.433594 549.625 L 2215.484375 551.097656 L 2175.460938 552.054688 C 2162.128906 552.457031 2148.753906 552.457031 2135.398438 552.640625 L 2115.351562 552.859375 C 2108.671875 552.929688 2101.980469 552.859375 2095.296875 552.859375 C 2041.808594 553.09375 1988.207031 551.972656 1934.5625 550.378906 C 1880.921875 548.800781 1827.226562 546.308594 1773.492188 543.335938 C 1719.765625 540.339844 1665.988281 536.898438 1612.183594 532.925781 C 1504.558594 525.210938 1396.796875 515.863281 1288.722656 506.761719 C 1180.652344 497.628906 1072.257812 488.515625 963.429688 481.15625 L 922.605469 478.445312 C 909.007812 477.53125 895.375 476.675781 881.734375 475.863281 C 854.449219 474.265625 827.082031 472.867188 799.683594 471.609375 C 785.992188 470.960938 772.246094 470.496094 758.542969 469.929688 L 717.320312 468.644531 C 703.542969 468.386719 689.796875 468.078125 676.011719 467.945312 L 655.339844 467.800781 C 648.449219 467.726562 641.5625 467.707031 634.65625 467.769531 C 620.859375 467.863281 607.082031 467.832031 593.265625 468.171875 L 572.570312 468.5625 C 565.671875 468.726562 558.765625 468.996094 551.867188 469.242188 L 531.183594 470.035156 L 510.5 471.125 C 496.714844 471.753906 482.949219 472.824219 469.191406 473.78125 C 414.160156 477.765625 359.429688 484.449219 305.613281 493.890625 C 251.804688 503.519531 199.085938 516.203125 148.457031 532.359375 C 97.855469 548.503906 49.25 567.964844 4.375 591.222656 C 101.371094 553.804688 205.972656 530.421875 311.984375 518.820312 C 418.203125 506.988281 525.835938 506.761719 632.9375 511.632812 C 639.628906 511.898438 646.332031 512.25 653.035156 512.652344 L 673.125 513.792969 C 686.519531 514.578125 699.914062 515.597656 713.300781 516.441406 L 753.476562 519.4375 C 766.871094 520.570312 780.253906 521.609375 793.648438 522.824219 C 820.441406 525.210938 847.222656 527.746094 874.042969 530.484375 C 900.855469 533.078125 927.714844 535.910156 954.546875 538.699219 C 1061.875 550.160156 1169.222656 562.507812 1276.917969 574.523438 C 1492.25 598.480469 1709.414062 620.980469 1929.679688 629.515625 C 2039.742188 633.839844 2150.523438 634.417969 2261.332031 629.855469 C 2316.722656 627.40625 2372.136719 623.996094 2427.363281 618.777344 C 2482.585938 613.535156 2537.609375 606.820312 2592.300781 598.605469 L 2820.574219 564.277344 Z M 2594.910156 521.804688 " fill-opacity="1" fill-rule="nonzero"/></g><path fill="#ff1616" d="M 1989.183594 755.75 C 2074.253906 774.375 2160.515625 788.121094 2247.238281 796.082031 C 2356.007812 806.066406 2466.808594 807.476562 2574.90625 789.996094 C 2627.46875 781.492188 2679.550781 768.332031 2728.8125 747.902344 C 2769.214844 731.152344 2845.699219 703.917969 2852.988281 653.589844 C 2855.570312 635.765625 2856.257812 608.789062 2833.867188 594.867188 C 2805.011719 576.941406 2766.304688 595.023438 2739.296875 605.296875 C 2707.039062 617.582031 2675.253906 630.648438 2640.421875 640.191406 C 2596.914062 652.117188 2551.917969 662.042969 2506.449219 670.855469 C 2455.222656 680.792969 2403.058594 689.71875 2350.363281 696.390625 C 2376.371094 700.703125 2419.570312 706.554688 2442.9375 709.46875 C 2470.878906 712.945312 2498.976562 716.003906 2527.214844 718.457031 C 2556.90625 721.03125 2587.601562 722.957031 2618.308594 723.972656 C 2481.632812 751.457031 2248.824219 775.550781 1910.3125 736.609375 C 1936.90625 743.445312 1963.492188 750.128906 1989.183594 755.75 Z M 1989.183594 755.75 " fill-opacity="1" fill-rule="nonzero"/><g fill="#ff1616" fill-opacity="1"><g transform="translate(69.352249, 1079.431893)"><g><path d="M 241.875 -288.429688 L 114.460938 -288.429688 C 99.058594 -288.429688 85.757812 -286.328125 74.90625 -282.476562 C 63.707031 -278.277344 54.605469 -271.625 47.953125 -262.875 C 40.953125 -254.125 35.703125 -242.574219 32.554688 -228.570312 C 29.402344 -214.921875 28.003906 -198.117188 28.003906 -178.867188 L 28.003906 -109.5625 C 28.003906 -89.957031 29.402344 -73.15625 32.554688 -59.15625 C 35.703125 -45.503906 40.953125 -33.953125 47.953125 -24.851562 C 54.957031 -16.101562 64.054688 -9.449219 74.90625 -5.601562 C 85.757812 -1.75 99.058594 0.351562 114.460938 0.351562 L 241.875 0.351562 C 244.671875 0.351562 251.675781 -1.050781 251.675781 -11.902344 L 251.675781 -39.554688 C 251.675781 -50.40625 244.671875 -51.804688 241.875 -51.804688 L 116.210938 -51.804688 C 108.859375 -51.804688 102.558594 -52.503906 98.007812 -54.253906 C 93.460938 -55.65625 90.308594 -58.105469 87.507812 -61.957031 C 84.707031 -65.457031 82.957031 -70.707031 81.558594 -77.359375 C 80.507812 -84.359375 79.808594 -93.109375 79.808594 -103.609375 L 79.808594 -185.167969 C 79.808594 -195.667969 80.507812 -204.417969 81.558594 -211.070312 C 82.957031 -217.722656 84.707031 -222.621094 87.507812 -226.472656 C 90.308594 -230.320312 93.460938 -232.773438 98.007812 -234.171875 C 102.558594 -235.921875 108.859375 -236.621094 116.210938 -236.621094 L 241.875 -236.621094 C 244.671875 -236.621094 251.675781 -238.023438 251.675781 -249.222656 L 251.675781 -276.175781 C 251.675781 -287.027344 244.671875 -288.429688 241.875 -288.429688 Z M 241.875 -288.429688 "/></g></g></g><g fill="#ff1616" fill-opacity="1"><g transform="translate(348.986684, 1079.431893)"><g><path d="M 215.621094 -255.875 C 214.921875 -257.625 214.21875 -259.726562 213.519531 -261.125 C 207.921875 -279.328125 191.117188 -292.277344 171.867188 -292.277344 C 163.117188 -292.277344 154.714844 -289.828125 147.714844 -284.925781 C 145.613281 -283.878906 143.863281 -282.476562 142.464844 -281.425781 C 137.214844 -276.875 131.960938 -268.476562 127.0625 -255.875 L 29.402344 -13.300781 C 28.351562 -10.152344 28.003906 -7 28.703125 -4.902344 C 29.054688 -2.800781 30.804688 0.351562 36.402344 0.351562 L 74.90625 0.351562 C 79.457031 0.351562 82.957031 -2.449219 84.707031 -7 L 104.660156 -57.054688 L 181.316406 -57.054688 C 185.167969 -57.054688 188.667969 -58.804688 190.417969 -61.957031 C 192.519531 -64.757812 192.867188 -68.605469 191.820312 -72.105469 L 179.21875 -103.261719 C 177.46875 -107.460938 173.617188 -110.261719 169.066406 -110.261719 L 125.664062 -110.261719 L 170.464844 -223.671875 C 170.816406 -224.371094 171.167969 -224.722656 171.167969 -224.722656 L 172.566406 -224.722656 C 172.566406 -224.722656 172.566406 -224.722656 172.917969 -224.023438 L 259.726562 -7.351562 C 261.476562 -2.449219 264.976562 0.351562 269.875 0.351562 L 307.328125 0.351562 C 312.929688 0.351562 314.332031 -3.148438 315.03125 -4.902344 C 315.730469 -7 315.378906 -10.152344 313.980469 -13.300781 Z M 215.621094 -255.875 "/></g></g></g><g fill="#ff1616" fill-opacity="1"><g transform="translate(692.668502, 1079.431893)"><g><path d="M 266.726562 -204.769531 C 266.726562 -204.417969 266.726562 -204.070312 266.726562 -203.71875 C 266.726562 -203.371094 266.726562 -203.019531 266.726562 -202.667969 Z M 273.375 -15.050781 L 212.121094 -120.0625 C 229.273438 -122.160156 242.574219 -129.511719 251.324219 -141.414062 C 261.125 -155.765625 266.375 -176.417969 266.726562 -203.71875 C 266.375 -231.023438 261.125 -251.675781 251.324219 -266.027344 C 240.824219 -281.078125 223.320312 -288.429688 199.519531 -288.429688 L 38.152344 -288.429688 C 35.003906 -288.429688 28.003906 -287.378906 28.003906 -276.175781 L 28.003906 -248.523438 C 28.003906 -237.671875 35.003906 -236.621094 38.152344 -236.621094 L 190.417969 -236.621094 C 199.519531 -236.621094 205.46875 -234.171875 208.96875 -228.921875 C 212.820312 -223.671875 214.570312 -215.269531 214.570312 -203.71875 C 214.570312 -192.167969 212.820312 -183.769531 208.96875 -178.515625 C 205.46875 -173.265625 199.519531 -170.816406 190.417969 -170.816406 L 38.152344 -170.816406 C 35.003906 -170.816406 28.003906 -169.765625 28.003906 -158.914062 L 28.003906 -11.902344 C 28.003906 -1.050781 35.003906 0.351562 38.152344 0.351562 L 70.007812 0.351562 C 73.15625 0.351562 79.808594 -1.050781 79.808594 -11.902344 L 79.808594 -119.011719 L 153.664062 -119.011719 L 217.019531 -6.652344 C 218.421875 -4.550781 219.472656 -2.800781 220.871094 -1.75 C 222.621094 -0.351562 225.070312 0.351562 228.222656 0.351562 L 266.726562 0.351562 C 270.925781 0.351562 274.078125 -2.449219 274.777344 -6.652344 C 275.125 -10.152344 274.777344 -12.953125 273.375 -15.050781 Z M 273.375 -15.050781 "/></g></g></g><g fill="#000000" fill-opacity="1"><g transform="translate(995.76281, 1079.431893)"><g/></g></g><g fill="#000000" fill-opacity="1"><g transform="translate(1175.651269, 1079.431893)"><g><path d="M 238.722656 -288.429688 L 37.453125 -288.429688 C 34.652344 -288.429688 28.003906 -287.027344 28.003906 -275.828125 L 28.003906 -248.875 C 28.003906 -238.023438 34.652344 -236.621094 37.453125 -236.621094 L 238.722656 -236.621094 C 241.523438 -236.621094 248.523438 -237.671875 248.523438 -248.523438 L 248.523438 -276.175781 C 248.523438 -287.378906 241.523438 -288.429688 238.722656 -288.429688 Z M 236.972656 -171.167969 L 56.355469 -170.816406 C 46.203125 -170.117188 37.453125 -164.515625 32.203125 -156.113281 C 30.804688 -153.316406 29.402344 -150.164062 28.703125 -147.015625 L 28.003906 -11.902344 C 28.003906 -1.050781 35.003906 0.351562 37.804688 0.351562 L 70.007812 0.351562 C 72.808594 0.351562 79.808594 -1.050781 79.808594 -11.902344 C 79.808594 -11.902344 80.15625 -119.363281 80.507812 -119.363281 L 236.972656 -119.363281 C 239.773438 -119.363281 246.773438 -120.410156 246.773438 -131.261719 L 246.773438 -158.914062 C 246.773438 -169.765625 239.773438 -171.167969 236.972656 -171.167969 Z M 236.972656 -171.167969 "/></g></g></g><g fill="#000000" fill-opacity="1"><g transform="translate(1452.135821, 1079.431893)"><g><path d="M 269.875 -288.429688 L 237.671875 -288.429688 C 234.523438 -288.429688 227.871094 -287.378906 227.871094 -276.527344 L 227.871094 -103.960938 C 227.871094 -93.460938 227.171875 -84.359375 226.121094 -77.707031 C 225.070312 -71.058594 222.972656 -65.804688 220.519531 -61.957031 C 217.722656 -58.457031 214.570312 -56.003906 210.019531 -54.253906 C 205.46875 -52.855469 199.167969 -51.804688 191.820312 -51.804688 L 116.210938 -51.804688 C 108.859375 -51.804688 102.558594 -52.855469 98.007812 -54.253906 C 93.460938 -56.003906 90.308594 -58.457031 87.507812 -61.957031 C 85.058594 -65.804688 82.957031 -71.058594 81.558594 -77.707031 C 80.507812 -84.359375 79.808594 -93.460938 79.808594 -103.960938 L 79.808594 -276.527344 C 79.808594 -287.378906 73.15625 -288.429688 70.007812 -288.429688 L 38.152344 -288.429688 C 35.003906 -288.429688 28.003906 -287.378906 28.003906 -276.527344 L 28.003906 -109.5625 C 28.003906 -89.957031 29.402344 -73.15625 32.554688 -59.503906 C 35.703125 -45.503906 40.953125 -33.953125 47.953125 -25.203125 C 54.605469 -16.101562 64.054688 -9.800781 74.90625 -5.601562 C 85.757812 -1.75 99.058594 0 114.460938 0 L 193.21875 0 C 208.621094 0 221.921875 -1.75 232.773438 -5.601562 C 243.972656 -9.800781 253.074219 -16.101562 260.074219 -25.203125 C 267.074219 -33.953125 271.976562 -45.503906 275.125 -59.503906 C 278.277344 -73.15625 279.675781 -89.957031 279.675781 -109.5625 L 279.675781 -276.527344 C 279.675781 -287.378906 273.027344 -288.429688 269.875 -288.429688 Z M 269.875 -288.429688 "/></g></g></g><g fill="#000000" fill-opacity="1"><g transform="translate(1759.769038, 1079.431893)"><g><path d="M 197.070312 -172.214844 L 92.058594 -172.214844 C 86.808594 -172.214844 80.15625 -174.316406 80.15625 -191.46875 L 80.15625 -217.371094 C 80.15625 -223.671875 81.207031 -228.570312 82.957031 -232.074219 C 84.359375 -234.171875 86.457031 -236.621094 92.410156 -236.621094 L 234.871094 -236.621094 C 237.671875 -236.621094 244.671875 -237.671875 244.671875 -248.523438 L 244.671875 -276.527344 C 244.671875 -287.378906 237.671875 -288.429688 234.871094 -288.429688 L 84.007812 -288.429688 C 64.757812 -288.429688 50.753906 -282.128906 41.652344 -269.175781 C 32.554688 -256.574219 28.003906 -239.773438 28.003906 -219.472656 L 28.003906 -192.867188 C 28.003906 -168.714844 32.902344 -149.113281 41.652344 -136.863281 C 52.503906 -122.511719 68.605469 -120.410156 83.308594 -120.410156 L 188.316406 -120.410156 C 193.570312 -120.410156 200.570312 -118.3125 200.570312 -101.160156 L 200.570312 -71.058594 C 200.570312 -64.757812 199.519531 -59.855469 197.417969 -56.355469 C 196.019531 -54.253906 193.917969 -51.804688 187.96875 -51.804688 L 38.503906 -51.804688 C 35.351562 -51.804688 28.351562 -50.753906 28.351562 -39.902344 L 28.351562 -11.902344 C 28.351562 -1.050781 35.351562 0 38.503906 0 L 196.367188 0 C 215.621094 0 229.972656 -6.652344 239.074219 -19.601562 C 247.824219 -32.203125 252.375 -48.65625 252.375 -68.957031 L 252.375 -99.757812 C 252.375 -122.511719 247.824219 -140.363281 238.722656 -152.964844 C 229.273438 -165.566406 215.269531 -172.214844 197.070312 -172.214844 Z M 197.070312 -172.214844 "/></g></g></g><g fill="#000000" fill-opacity="1"><g transform="translate(2040.103476, 1079.431893)"><g><path d="M 70.007812 -288.429688 L 37.804688 -288.429688 C 35.003906 -288.429688 28.003906 -287.027344 28.003906 -276.175781 L 28.003906 -11.902344 C 28.003906 -1.050781 35.003906 0.351562 37.804688 0.351562 L 70.007812 0.351562 C 72.808594 0.351562 79.808594 -1.050781 79.808594 -11.902344 L 79.808594 -276.175781 C 79.808594 -287.027344 72.808594 -288.429688 70.007812 -288.429688 Z M 70.007812 -288.429688 "/></g></g></g><g fill="#000000" fill-opacity="1"><g transform="translate(2147.894826, 1079.431893)"><g><path d="M 266.375 -262.875 C 259.375 -271.625 250.273438 -278.277344 239.074219 -282.476562 C 228.222656 -286.328125 214.921875 -288.429688 199.519531 -288.429688 L 114.109375 -288.429688 C 98.710938 -288.429688 85.757812 -286.328125 74.90625 -282.476562 C 63.707031 -278.277344 54.605469 -271.625 47.605469 -262.875 C 40.953125 -254.125 35.703125 -242.574219 32.554688 -228.570312 C 29.402344 -214.921875 28.003906 -198.46875 28.003906 -178.867188 L 28.003906 -109.5625 C 28.003906 -89.957031 29.402344 -73.15625 32.554688 -59.503906 C 35.703125 -45.503906 40.953125 -33.953125 47.605469 -25.203125 C 54.605469 -16.101562 63.707031 -9.449219 74.90625 -5.601562 C 85.410156 -1.75 98.710938 0.351562 114.109375 0.351562 L 199.519531 0.351562 C 214.921875 0.351562 228.222656 -1.75 239.074219 -5.601562 C 250.273438 -9.449219 259.375 -16.101562 266.375 -24.851562 C 273.375 -33.953125 278.277344 -45.503906 281.425781 -59.503906 C 284.226562 -73.15625 285.976562 -89.957031 285.976562 -109.5625 L 285.976562 -178.867188 C 285.976562 -198.117188 284.226562 -214.921875 281.425781 -228.570312 C 278.277344 -242.574219 273.375 -254.125 266.375 -262.875 Z M 233.824219 -184.816406 L 233.824219 -103.261719 C 233.824219 -93.109375 233.472656 -84.359375 232.074219 -77.359375 C 231.023438 -71.058594 228.921875 -65.457031 226.121094 -61.957031 C 223.671875 -58.105469 220.171875 -55.65625 215.621094 -54.253906 C 211.070312 -52.503906 205.121094 -51.804688 197.769531 -51.804688 L 115.859375 -51.804688 C 108.511719 -51.804688 102.558594 -52.503906 98.007812 -54.253906 C 93.460938 -55.65625 89.957031 -58.105469 87.507812 -61.957031 C 84.707031 -65.457031 82.957031 -71.058594 81.558594 -77.359375 C 80.507812 -84.359375 79.808594 -93.109375 79.808594 -103.261719 L 79.808594 -184.816406 C 79.808594 -194.96875 80.507812 -203.71875 81.558594 -210.71875 C 82.957031 -217.371094 84.707031 -222.621094 87.507812 -226.472656 C 89.957031 -229.972656 93.460938 -232.421875 98.007812 -234.171875 C 102.558594 -235.574219 108.511719 -236.621094 115.859375 -236.621094 L 197.769531 -236.621094 C 205.121094 -236.621094 211.070312 -235.574219 215.621094 -234.171875 C 220.171875 -232.421875 223.671875 -229.972656 226.121094 -226.472656 C 228.921875 -222.621094 231.023438 -217.371094 232.074219 -210.71875 C 233.472656 -203.71875 233.824219 -194.96875 233.824219 -184.816406 Z M 233.824219 -184.816406 "/></g></g></g><g fill="#000000" fill-opacity="1"><g transform="translate(2461.827867, 1079.431893)"><g><path d="M 275.828125 -288.429688 L 244.671875 -288.429688 C 241.523438 -288.429688 234.871094 -287.378906 234.871094 -276.175781 L 234.871094 -65.804688 C 234.871094 -65.457031 234.871094 -65.457031 234.871094 -65.105469 L 233.121094 -65.105469 C 232.773438 -65.105469 232.421875 -65.105469 232.074219 -66.15625 L 121.460938 -262.875 C 118.660156 -268.125 116.210938 -272.328125 113.761719 -275.476562 C 111.3125 -278.976562 108.859375 -281.777344 106.410156 -283.527344 C 103.609375 -285.628906 100.460938 -287.027344 96.609375 -287.726562 C 93.109375 -288.078125 88.910156 -288.429688 84.359375 -288.429688 L 58.105469 -288.429688 C 47.953125 -288.429688 40.253906 -284.925781 35.351562 -278.625 C 30.453125 -271.976562 28.003906 -260.425781 28.003906 -243.273438 L 28.003906 -11.902344 C 28.003906 -1.050781 35.003906 0.351562 38.152344 0.351562 L 69.308594 0.351562 C 72.457031 0.351562 79.109375 -1.050781 79.109375 -11.902344 L 79.109375 -222.269531 C 79.109375 -222.621094 79.109375 -222.972656 79.109375 -222.972656 L 80.859375 -222.972656 C 80.859375 -222.972656 81.207031 -222.972656 81.90625 -221.921875 L 192.867188 -25.203125 C 195.667969 -19.601562 198.46875 -15.402344 200.917969 -12.25 C 203.371094 -8.75 205.820312 -6.300781 208.621094 -4.550781 C 211.421875 -2.449219 214.570312 -1.398438 218.070312 -0.699219 C 221.222656 0 225.070312 0.351562 229.972656 0.351562 L 255.523438 0.351562 C 265.675781 0.351562 273.375 -3.148438 278.277344 -9.800781 C 283.175781 -16.101562 285.628906 -27.652344 285.628906 -44.804688 L 285.628906 -276.175781 C 285.628906 -287.378906 278.625 -288.429688 275.828125 -288.429688 Z M 275.828125 -288.429688 "/></g></g></g><g fill="#000000" fill-opacity="1"><g transform="translate(833.163742, 1374.546057)"><g><path d="M 86.394531 -52.746094 L 98.132812 -52.746094 C 99.535156 -52.746094 100.761719 -53.972656 100.761719 -55.375 L 100.761719 -66.066406 C 100.761719 -67.816406 100.0625 -69.394531 98.835938 -70.621094 L 83.414062 -86.394531 C 82.011719 -87.792969 80.433594 -88.496094 78.15625 -88.496094 L 28.214844 -88.496094 C 26.109375 -88.496094 24.707031 -87.96875 23.132812 -86.394531 L 7.359375 -70.621094 C 6.308594 -69.570312 5.257812 -67.816406 5.257812 -66.066406 L 5.257812 -21.554688 C 5.257812 -19.800781 6.308594 -18.050781 7.359375 -17 L 23.132812 -1.226562 C 24.707031 0.351562 26.109375 0.875 28.214844 0.875 L 78.15625 0.875 C 80.433594 0.875 82.011719 0.175781 83.414062 -1.226562 L 98.835938 -17 C 100.0625 -18.226562 100.761719 -19.800781 100.761719 -21.554688 L 100.761719 -32.242188 C 100.761719 -33.644531 99.535156 -34.871094 98.132812 -34.871094 L 86.394531 -34.871094 C 84.992188 -34.871094 83.765625 -33.644531 83.765625 -32.242188 L 83.765625 -26.109375 C 83.765625 -24.882812 83.589844 -24.007812 82.539062 -23.132812 L 76.929688 -17.875 C 76.054688 -17 75.351562 -16.472656 74.125 -16.472656 L 33.121094 -16.472656 C 32.242188 -16.472656 31.542969 -16.824219 30.492188 -17.875 L 24.882812 -23.132812 C 24.007812 -24.007812 23.65625 -24.882812 23.65625 -26.109375 L 23.65625 -61.507812 C 23.65625 -62.734375 24.007812 -63.613281 24.882812 -64.488281 L 30.492188 -69.746094 C 31.542969 -70.796875 32.242188 -71.148438 33.121094 -71.148438 L 74.125 -71.148438 C 75.351562 -71.148438 76.054688 -70.621094 76.929688 -69.746094 L 82.539062 -64.488281 C 83.589844 -63.613281 83.765625 -62.734375 83.765625 -61.507812 L 83.765625 -55.375 C 83.765625 -53.972656 84.992188 -52.746094 86.394531 -52.746094 Z M 86.394531 -52.746094 "/></g></g></g><g fill="#000000" fill-opacity="1"><g transform="translate(974.222981, 1374.546057)"><g><path d="M 98.835938 -69.746094 L 83.414062 -85.515625 C 82.011719 -86.917969 80.433594 -87.621094 78.15625 -87.621094 L 27.863281 -87.621094 C 25.585938 -87.621094 24.007812 -86.917969 22.605469 -85.515625 L 7.183594 -69.746094 C 5.957031 -68.519531 5.257812 -66.941406 5.257812 -65.1875 L 5.257812 -2.628906 C 5.257812 -1.226562 6.484375 0 7.886719 0 L 19.625 0 C 21.027344 0 22.253906 -1.226562 22.253906 -2.628906 L 22.253906 -28.738281 L 83.765625 -28.738281 L 83.765625 -2.628906 C 83.765625 -1.226562 84.992188 0 86.394531 0 L 98.132812 0 C 99.535156 0 100.761719 -1.226562 100.761719 -2.628906 L 100.761719 -65.1875 C 100.761719 -66.941406 100.0625 -68.519531 98.835938 -69.746094 Z M 22.253906 -43.984375 L 22.253906 -60.632812 C 22.253906 -61.859375 22.605469 -62.734375 23.480469 -63.613281 L 29.089844 -68.867188 L 30.140625 -69.746094 C 30.492188 -70.09375 31.015625 -70.269531 31.894531 -70.269531 L 74.125 -70.269531 C 74.828125 -70.269531 75.351562 -70.09375 75.878906 -69.746094 L 76.929688 -68.867188 L 82.539062 -63.613281 C 83.414062 -62.734375 83.765625 -61.859375 83.765625 -60.632812 L 83.765625 -43.984375 Z M 22.253906 -43.984375 "/></g></g></g><g fill="#000000" fill-opacity="1"><g transform="translate(1115.28222, 1374.546057)"><g><path d="M 101.289062 -70.269531 L 85.515625 -85.691406 C 84.289062 -86.917969 82.714844 -87.621094 80.960938 -87.621094 L 7.886719 -87.621094 C 6.484375 -87.621094 5.257812 -86.394531 5.257812 -84.992188 L 5.257812 -2.628906 C 5.257812 -1.226562 6.484375 0 7.886719 0 L 19.976562 0 C 21.378906 0 22.605469 -1.226562 22.605469 -2.628906 L 22.605469 -19.277344 L 70.09375 -19.277344 L 80.960938 -1.578125 C 81.660156 -0.527344 82.539062 0 83.589844 0 L 96.730469 0 C 98.835938 0 99.886719 -1.925781 98.835938 -3.679688 L 86.917969 -22.78125 L 101.289062 -37.152344 C 102.339844 -38.203125 103.390625 -39.953125 103.390625 -41.707031 L 103.390625 -65.015625 C 103.390625 -67.292969 102.691406 -68.867188 101.289062 -70.269531 Z M 22.605469 -70.621094 L 75.351562 -70.621094 C 76.578125 -70.621094 77.457031 -70.269531 78.332031 -69.394531 L 83.589844 -63.785156 L 84.464844 -62.734375 C 84.816406 -62.210938 84.992188 -61.683594 84.992188 -60.984375 L 84.992188 -46.261719 C 84.992188 -45.035156 84.640625 -44.160156 83.765625 -43.285156 L 78.15625 -38.027344 C 77.105469 -36.976562 76.402344 -36.625 75.527344 -36.625 L 22.605469 -36.625 Z M 22.605469 -70.621094 "/></g></g></g><g fill="#000000" fill-opacity="1"><g transform="translate(1258.96963, 1374.546057)"><g/></g></g><g fill="#000000" fill-opacity="1"><g transform="translate(1339.579981, 1374.546057)"><g><path d="M 5.257812 -54.675781 C 5.257812 -52.398438 5.957031 -50.820312 7.359375 -49.417969 L 19.625 -37.5 C 20.851562 -36.449219 22.429688 -35.574219 24.183594 -35.574219 L 76.230469 -35.574219 C 77.457031 -35.574219 78.332031 -35.222656 79.207031 -34.347656 L 81.835938 -31.191406 C 82.1875 -30.667969 82.363281 -30.140625 82.363281 -29.441406 L 82.363281 -25.234375 C 82.363281 -24.007812 82.011719 -23.132812 81.136719 -22.253906 L 77.28125 -18.75 C 76.230469 -17.875 75.527344 -17.347656 74.652344 -17.347656 L 10.863281 -17.347656 C 9.464844 -17.347656 8.234375 -16.121094 8.234375 -14.71875 L 8.234375 -2.628906 C 8.234375 -1.226562 9.464844 0 10.863281 0 L 79.558594 0 C 81.660156 0 83.0625 -0.527344 84.640625 -2.101562 L 98.660156 -16.121094 C 99.710938 -17.171875 100.761719 -18.925781 100.761719 -20.679688 L 100.761719 -35.222656 C 100.761719 -37.5 100.0625 -39.253906 98.660156 -40.480469 L 88.144531 -50.644531 C 86.917969 -51.695312 85.339844 -52.570312 83.589844 -52.570312 L 29.789062 -52.570312 C 28.5625 -52.570312 27.6875 -52.921875 26.8125 -53.796875 L 24.183594 -56.953125 C 23.832031 -57.476562 23.65625 -58.003906 23.65625 -58.707031 L 23.65625 -62.386719 C 23.65625 -63.613281 24.007812 -64.488281 24.882812 -65.363281 L 28.738281 -68.867188 C 29.789062 -69.746094 30.492188 -70.269531 31.367188 -70.269531 L 93.402344 -70.269531 C 94.804688 -70.269531 96.03125 -71.496094 96.03125 -72.898438 L 96.03125 -84.992188 C 96.03125 -86.394531 94.804688 -87.621094 93.402344 -87.621094 L 26.460938 -87.621094 C 24.359375 -87.621094 22.957031 -87.09375 21.378906 -85.515625 L 7.359375 -71.496094 C 6.308594 -70.445312 5.257812 -68.695312 5.257812 -66.941406 Z M 5.257812 -54.675781 "/></g></g></g><g fill="#000000" fill-opacity="1"><g transform="translate(1480.639192, 1374.546057)"><g><path d="M 116.535156 -87.621094 L 7.886719 -87.621094 C 6.484375 -87.621094 5.257812 -86.394531 5.257812 -84.992188 L 5.257812 -71.847656 C 5.257812 -70.445312 6.484375 -69.21875 7.886719 -69.21875 L 53.097656 -69.21875 L 53.097656 -2.628906 C 53.097656 -1.226562 54.324219 0 55.726562 0 L 68.867188 0 C 70.269531 0 71.496094 -1.226562 71.496094 -2.628906 L 71.496094 -69.21875 L 116.535156 -69.21875 C 117.9375 -69.21875 119.164062 -70.445312 119.164062 -71.847656 L 119.164062 -84.992188 C 119.164062 -86.394531 117.9375 -87.621094 116.535156 -87.621094 Z M 116.535156 -87.621094 "/></g></g></g><g fill="#000000" fill-opacity="1"><g transform="translate(1640.095835, 1374.546057)"><g><path d="M 5.257812 -22.429688 C 5.257812 -20.679688 5.957031 -19.101562 7.183594 -17.875 L 22.605469 -2.101562 C 24.007812 -0.699219 25.585938 0 27.863281 0 L 78.15625 0 C 80.433594 0 82.011719 -0.699219 83.414062 -2.101562 L 98.835938 -17.875 C 100.0625 -19.101562 100.761719 -20.679688 100.761719 -22.429688 L 100.761719 -65.1875 C 100.761719 -66.941406 100.0625 -68.519531 98.835938 -69.746094 L 83.414062 -85.515625 C 82.011719 -86.917969 80.433594 -87.621094 78.15625 -87.621094 L 27.863281 -87.621094 C 25.585938 -87.621094 24.007812 -86.917969 22.605469 -85.515625 L 7.183594 -69.746094 C 5.957031 -68.519531 5.257812 -66.941406 5.257812 -65.1875 Z M 22.253906 -26.988281 L 22.253906 -60.632812 C 22.253906 -61.859375 22.605469 -62.734375 23.480469 -63.613281 L 29.089844 -68.867188 L 30.140625 -69.746094 C 30.492188 -70.09375 31.015625 -70.269531 31.894531 -70.269531 L 74.125 -70.269531 C 74.828125 -70.269531 75.351562 -70.09375 75.878906 -69.746094 L 76.929688 -68.867188 L 82.539062 -63.613281 C 83.414062 -62.734375 83.765625 -61.859375 83.765625 -60.632812 L 83.765625 -26.988281 C 83.765625 -25.761719 83.414062 -24.882812 82.539062 -24.007812 L 76.929688 -18.75 L 75.878906 -17.875 C 75.351562 -17.523438 74.828125 -17.347656 74.125 -17.347656 L 31.894531 -17.347656 C 31.015625 -17.347656 30.492188 -17.523438 30.140625 -17.875 L 29.089844 -18.75 L 23.480469 -24.007812 C 22.605469 -24.882812 22.253906 -25.761719 22.253906 -26.988281 Z M 22.253906 -26.988281 "/></g></g></g><g fill="#000000" fill-opacity="1"><g transform="translate(1781.155045, 1374.546057)"><g><path d="M 101.289062 -70.269531 L 85.515625 -85.691406 C 84.289062 -86.917969 82.714844 -87.621094 80.960938 -87.621094 L 7.886719 -87.621094 C 6.484375 -87.621094 5.257812 -86.394531 5.257812 -84.992188 L 5.257812 -2.628906 C 5.257812 -1.226562 6.484375 0 7.886719 0 L 19.976562 0 C 21.378906 0 22.605469 -1.226562 22.605469 -2.628906 L 22.605469 -19.277344 L 70.09375 -19.277344 L 80.960938 -1.578125 C 81.660156 -0.527344 82.539062 0 83.589844 0 L 96.730469 0 C 98.835938 0 99.886719 -1.925781 98.835938 -3.679688 L 86.917969 -22.78125 L 101.289062 -37.152344 C 102.339844 -38.203125 103.390625 -39.953125 103.390625 -41.707031 L 103.390625 -65.015625 C 103.390625 -67.292969 102.691406 -68.867188 101.289062 -70.269531 Z M 22.605469 -70.621094 L 75.351562 -70.621094 C 76.578125 -70.621094 77.457031 -70.269531 78.332031 -69.394531 L 83.589844 -63.785156 L 84.464844 -62.734375 C 84.816406 -62.210938 84.992188 -61.683594 84.992188 -60.984375 L 84.992188 -46.261719 C 84.992188 -45.035156 84.640625 -44.160156 83.765625 -43.285156 L 78.15625 -38.027344 C 77.105469 -36.976562 76.402344 -36.625 75.527344 -36.625 L 22.605469 -36.625 Z M 22.605469 -70.621094 "/></g></g></g><g fill="#000000" fill-opacity="1"><g transform="translate(1924.842424, 1374.546057)"><g><path d="M 24.882812 -63.613281 L 30.492188 -68.867188 C 31.542969 -69.921875 32.242188 -70.269531 33.121094 -70.269531 L 96.382812 -70.269531 C 97.785156 -70.269531 99.011719 -71.496094 99.011719 -72.898438 L 99.011719 -84.992188 C 99.011719 -86.394531 97.785156 -87.621094 96.382812 -87.621094 L 27.335938 -87.621094 C 25.234375 -87.621094 23.832031 -87.09375 22.253906 -85.515625 L 7.359375 -70.621094 C 6.308594 -69.570312 5.257812 -67.816406 5.257812 -66.066406 L 5.257812 -21.730469 C 5.257812 -19.453125 5.957031 -17.875 7.359375 -16.472656 L 22.253906 -1.925781 C 23.480469 -0.699219 25.058594 0 26.8125 0 L 96.382812 0 C 97.785156 0 99.011719 -1.226562 99.011719 -2.628906 L 99.011719 -14.371094 C 99.011719 -15.773438 97.785156 -17 96.382812 -17 L 33.296875 -17 C 32.070312 -17 31.191406 -17.347656 30.316406 -18.226562 L 24.183594 -24.882812 C 23.832031 -25.410156 23.65625 -25.933594 23.65625 -26.636719 L 23.65625 -35.75 L 87.792969 -35.75 C 89.195312 -35.75 90.421875 -36.976562 90.421875 -38.378906 L 90.421875 -50.46875 C 90.421875 -51.871094 89.195312 -53.097656 87.792969 -53.097656 L 23.65625 -53.097656 L 23.65625 -60.632812 C 23.65625 -61.859375 24.007812 -62.734375 24.882812 -63.613281 Z M 24.882812 -63.613281 "/></g></g></g></svg>