<svg xmlns="http://www.w3.org/2000/svg" xmlns:xlink="http://www.w3.org/1999/xlink" width="1920" zoomAndPan="magnify" viewBox="0 0 2880 1619.99993" height="1080" preserveAspectRatio="xMidYMid meet" version="1.0"><defs>
<g/><clipPath id="3c6e230ac0"><path d="M 0 172.648438 L 2811 172.648438 L 2811 572 L 0 572 Z M 0 172.648438 " clip-rule="nonzero"/></clipPath></defs><g clip-path="url(#3c6e230ac0)"><path fill="#fafafa" d="M 2584.117188 460.585938 C 2548.933594 453.972656 2514.109375 445.265625 2479.828125 434.621094 C 2445.59375 423.84375 2411.746094 411.542969 2378.269531 397.960938 C 2344.804688 384.335938 2311.542969 369.773438 2278.242188 354.644531 L 2177.484375 308.574219 C 2143.472656 293.160156 2108.863281 277.972656 2073.207031 263.574219 C 2064.242188 260.027344 2055.371094 256.386719 2046.242188 252.984375 L 2032.636719 247.8125 L 2018.871094 242.800781 C 2009.75 239.410156 2000.324219 236.3125 1991.0625 233.0625 C 1986.402344 231.480469 1981.648438 229.980469 1976.945312 228.4375 C 1972.21875 226.925781 1967.558594 225.332031 1962.753906 223.910156 C 1953.191406 221.023438 1943.683594 218.070312 1933.9375 215.4375 C 1929.082031 214.101562 1924.273438 212.691406 1919.386719 211.429688 L 1904.671875 207.746094 C 1894.851562 205.308594 1885.097656 202.75 1875.117188 200.734375 L 1860.222656 197.535156 C 1855.253906 196.496094 1850.3125 195.355469 1845.28125 194.523438 L 1815.203125 189.121094 L 1784.90625 184.617188 C 1782.375 184.257812 1779.863281 183.835938 1777.332031 183.539062 L 1769.714844 182.644531 L 1754.484375 180.855469 C 1749.402344 180.300781 1744.359375 179.578125 1739.253906 179.167969 L 1723.972656 177.820312 C 1683.242188 174.253906 1642.335938 172.617188 1601.613281 173.007812 C 1560.894531 173.421875 1520.355469 175.425781 1480.210938 179.054688 C 1399.882812 186.265625 1321.300781 199.847656 1244.910156 217.414062 C 1168.59375 235.222656 1094.40625 257.117188 1022.574219 282.28125 C 986.671875 294.878906 951.21875 308.101562 916.476562 322.253906 C 881.671875 336.300781 847.425781 351.046875 813.773438 366.460938 C 885.828125 342.386719 958.421875 319.628906 1032.351562 300.113281 C 1106.117188 280.328125 1181.097656 263.625 1256.816406 250.617188 C 1294.675781 244.109375 1332.816406 238.882812 1370.996094 234.585938 C 1390.074219 232.34375 1409.226562 230.699219 1428.347656 229.042969 L 1457.066406 227.078125 C 1466.636719 226.453125 1476.230469 226.144531 1485.800781 225.648438 C 1524.09375 224.078125 1562.34375 223.707031 1600.367188 225.011719 L 1628.832031 226.328125 C 1638.300781 226.90625 1647.726562 227.675781 1657.164062 228.332031 L 1664.234375 228.847656 L 1671.273438 229.527344 L 1685.351562 230.894531 C 1690.035156 231.378906 1694.738281 231.746094 1699.410156 232.304688 L 1713.382812 234.0625 L 1727.347656 235.808594 C 1732.011719 236.34375 1736.589844 237.199219 1741.21875 237.875 L 1755.050781 240.027344 L 1761.964844 241.09375 C 1764.273438 241.457031 1766.535156 241.929688 1768.820312 242.339844 L 1796.171875 247.460938 L 1823.1875 253.375 C 1827.714844 254.289062 1832.121094 255.511719 1836.566406 256.613281 L 1849.890625 259.945312 C 1858.835938 262.03125 1867.511719 264.664062 1876.257812 267.144531 L 1889.359375 270.875 C 1893.710938 272.160156 1897.992188 273.582031 1902.304688 274.929688 C 1910.949219 277.570312 1919.460938 280.5625 1928.019531 283.441406 C 1996.3125 307.035156 2061.585938 337.207031 2127.058594 368.886719 C 2192.570312 400.59375 2258.472656 434.015625 2329.210938 464.132812 C 2342.722656 469.882812 2356.441406 475.496094 2370.34375 480.949219 C 2328.460938 484.167969 2286.421875 486.59375 2244.292969 488.371094 L 2204.300781 489.84375 L 2164.238281 490.800781 C 2150.890625 491.199219 2137.503906 491.199219 2124.136719 491.386719 L 2104.066406 491.601562 C 2097.378906 491.671875 2090.679688 491.601562 2083.988281 491.601562 C 2030.445312 491.839844 1976.789062 490.71875 1923.089844 489.125 C 1869.394531 487.550781 1815.644531 485.0625 1761.855469 482.089844 C 1708.074219 479.097656 1654.242188 475.660156 1600.378906 471.691406 C 1492.644531 463.992188 1384.773438 454.652344 1276.585938 445.5625 C 1168.40625 436.441406 1059.898438 427.339844 950.960938 419.988281 L 910.09375 417.28125 C 896.480469 416.367188 882.835938 415.515625 869.179688 414.703125 C 841.867188 413.109375 814.472656 411.710938 787.046875 410.453125 C 773.339844 409.804688 759.582031 409.34375 745.863281 408.777344 L 704.597656 407.492188 C 690.804688 407.234375 677.046875 406.925781 663.246094 406.792969 L 642.550781 406.648438 C 635.65625 406.578125 628.761719 406.558594 621.847656 406.617188 C 608.035156 406.710938 594.246094 406.679688 580.414062 407.019531 L 559.699219 407.410156 C 552.796875 407.574219 545.878906 407.84375 538.972656 408.089844 L 518.269531 408.882812 L 497.5625 409.972656 C 483.761719 410.597656 469.984375 411.667969 456.214844 412.625 C 401.128906 416.605469 346.339844 423.277344 292.464844 432.707031 C 238.601562 442.324219 185.832031 454.992188 135.148438 471.128906 C 84.496094 487.25 35.839844 506.6875 -9.078125 529.917969 C 88.015625 492.546875 192.726562 469.195312 298.847656 457.605469 C 405.171875 445.789062 512.917969 445.5625 620.128906 450.425781 C 626.828125 450.695312 633.539062 451.042969 640.246094 451.445312 L 660.355469 452.585938 C 673.765625 453.367188 687.171875 454.386719 700.574219 455.230469 L 740.789062 458.222656 C 754.199219 459.351562 767.597656 460.390625 781.007812 461.605469 C 807.824219 463.992188 834.632812 466.519531 861.480469 469.253906 C 888.320312 471.847656 915.210938 474.675781 942.070312 477.460938 C 1049.507812 488.90625 1156.964844 501.238281 1264.769531 513.238281 C 1480.324219 537.167969 1697.710938 559.636719 1918.203125 568.160156 C 2028.378906 572.480469 2139.273438 573.058594 2250.199219 568.5 C 2305.644531 566.054688 2361.113281 562.648438 2416.394531 557.4375 C 2471.679688 552.203125 2526.757812 545.496094 2581.503906 537.289062 L 2810.015625 503.003906 Z M 2584.117188 460.585938 " fill-opacity="1" fill-rule="nonzero"/></g><path fill="#ff1616" d="M 1977.765625 694.238281 C 2062.925781 712.839844 2149.277344 726.570312 2236.089844 734.519531 C 2344.96875 744.492188 2455.882812 745.902344 2564.09375 728.441406 C 2616.710938 719.945312 2668.84375 706.804688 2718.15625 686.402344 C 2758.601562 669.671875 2835.164062 642.46875 2842.460938 592.203125 C 2845.042969 574.402344 2845.734375 547.460938 2823.320312 533.558594 C 2794.433594 515.65625 2755.6875 533.710938 2728.652344 543.976562 C 2696.359375 556.242188 2664.542969 569.292969 2629.675781 578.824219 C 2586.125 590.734375 2541.082031 600.648438 2495.566406 609.449219 C 2444.285156 619.375 2392.070312 628.289062 2339.316406 634.953125 C 2365.355469 639.261719 2408.597656 645.101562 2431.988281 648.011719 C 2459.957031 651.488281 2488.082031 654.542969 2516.351562 656.992188 C 2546.074219 659.5625 2576.800781 661.484375 2607.539062 662.503906 C 2470.722656 689.949219 2237.675781 714.011719 1898.816406 675.121094 C 1925.4375 681.949219 1952.050781 688.621094 1977.765625 694.238281 Z M 1977.765625 694.238281 " fill-opacity="1" fill-rule="nonzero"/><g fill="#ff1616" fill-opacity="1"><g transform="translate(54.928341, 1005.517486)"><g><path d="M 242.203125 -288.824219 L 114.617188 -288.824219 C 99.195312 -288.824219 85.875 -286.71875 75.007812 -282.863281 C 63.792969 -278.65625 54.679688 -271.996094 48.019531 -263.234375 C 41.011719 -254.472656 35.753906 -242.90625 32.597656 -228.882812 C 29.441406 -215.214844 28.039062 -198.390625 28.039062 -179.113281 L 28.039062 -109.710938 C 28.039062 -90.082031 29.441406 -73.257812 32.597656 -59.238281 C 35.753906 -45.566406 41.011719 -34 48.019531 -24.886719 C 55.03125 -16.125 64.144531 -9.464844 75.007812 -5.609375 C 85.875 -1.753906 99.195312 0.351562 114.617188 0.351562 L 242.203125 0.351562 C 245.007812 0.351562 252.019531 -1.050781 252.019531 -11.917969 L 252.019531 -39.609375 C 252.019531 -50.472656 245.007812 -51.875 242.203125 -51.875 L 116.371094 -51.875 C 109.007812 -51.875 102.699219 -52.578125 98.144531 -54.328125 C 93.585938 -55.730469 90.433594 -58.183594 87.628906 -62.039062 C 84.824219 -65.546875 83.070312 -70.804688 81.667969 -77.464844 C 80.617188 -84.472656 79.917969 -93.238281 79.917969 -103.75 L 79.917969 -185.421875 C 79.917969 -195.9375 80.617188 -204.699219 81.667969 -211.359375 C 83.070312 -218.019531 84.824219 -222.925781 87.628906 -226.78125 C 90.433594 -230.636719 93.585938 -233.089844 98.144531 -234.492188 C 102.699219 -236.246094 109.007812 -236.945312 116.371094 -236.945312 L 242.203125 -236.945312 C 245.007812 -236.945312 252.019531 -238.347656 252.019531 -249.566406 L 252.019531 -276.554688 C 252.019531 -287.421875 245.007812 -288.824219 242.203125 -288.824219 Z M 242.203125 -288.824219 "/></g></g></g><g fill="#ff1616" fill-opacity="1"><g transform="translate(334.959508, 1005.517486)"><g><path d="M 215.914062 -256.226562 C 215.214844 -257.976562 214.515625 -260.082031 213.8125 -261.484375 C 208.203125 -279.710938 191.378906 -292.679688 172.101562 -292.679688 C 163.339844 -292.679688 154.925781 -290.222656 147.917969 -285.316406 C 145.8125 -284.265625 144.0625 -282.863281 142.660156 -281.8125 C 137.402344 -277.253906 132.144531 -268.84375 127.234375 -256.226562 L 29.441406 -13.320312 C 28.390625 -10.164062 28.039062 -7.011719 28.742188 -4.90625 C 29.09375 -2.804688 30.84375 0.351562 36.453125 0.351562 L 75.007812 0.351562 C 79.566406 0.351562 83.070312 -2.453125 84.824219 -7.011719 L 104.804688 -57.132812 L 181.566406 -57.132812 C 185.421875 -57.132812 188.925781 -58.886719 190.679688 -62.039062 C 192.78125 -64.84375 193.132812 -68.699219 192.082031 -72.207031 L 179.460938 -103.402344 C 177.710938 -107.605469 173.855469 -110.410156 169.296875 -110.410156 L 125.835938 -110.410156 L 170.699219 -223.976562 C 171.050781 -224.679688 171.402344 -225.027344 171.402344 -225.027344 L 172.800781 -225.027344 C 172.800781 -225.027344 172.800781 -225.027344 173.152344 -224.328125 L 260.082031 -7.359375 C 261.832031 -2.453125 265.339844 0.351562 270.246094 0.351562 L 307.75 0.351562 C 313.359375 0.351562 314.761719 -3.15625 315.460938 -4.90625 C 316.164062 -7.011719 315.8125 -10.164062 314.410156 -13.320312 Z M 215.914062 -256.226562 "/></g></g></g><g fill="#ff1616" fill-opacity="1"><g transform="translate(679.128631, 1005.517486)"><g><path d="M 267.089844 -205.050781 C 267.089844 -204.699219 267.089844 -204.347656 267.089844 -204 C 267.089844 -203.648438 267.089844 -203.296875 267.089844 -202.945312 Z M 273.75 -15.070312 L 212.410156 -120.226562 C 229.585938 -122.328125 242.90625 -129.691406 251.667969 -141.605469 C 261.484375 -155.976562 266.738281 -176.660156 267.089844 -204 C 266.738281 -231.339844 261.484375 -252.019531 251.667969 -266.390625 C 241.152344 -281.460938 223.628906 -288.824219 199.792969 -288.824219 L 38.207031 -288.824219 C 35.050781 -288.824219 28.039062 -287.769531 28.039062 -276.554688 L 28.039062 -248.863281 C 28.039062 -238 35.050781 -236.945312 38.207031 -236.945312 L 190.679688 -236.945312 C 199.792969 -236.945312 205.75 -234.492188 209.257812 -229.234375 C 213.113281 -223.976562 214.863281 -215.566406 214.863281 -204 C 214.863281 -192.429688 213.113281 -184.019531 209.257812 -178.761719 C 205.75 -173.503906 199.792969 -171.050781 190.679688 -171.050781 L 38.207031 -171.050781 C 35.050781 -171.050781 28.039062 -170 28.039062 -159.132812 L 28.039062 -11.917969 C 28.039062 -1.050781 35.050781 0.351562 38.207031 0.351562 L 70.101562 0.351562 C 73.257812 0.351562 79.917969 -1.050781 79.917969 -11.917969 L 79.917969 -119.175781 L 153.875 -119.175781 L 217.316406 -6.660156 C 218.71875 -4.558594 219.769531 -2.804688 221.171875 -1.753906 C 222.925781 -0.351562 225.378906 0.351562 228.535156 0.351562 L 267.089844 0.351562 C 271.296875 0.351562 274.453125 -2.453125 275.152344 -6.660156 C 275.503906 -10.164062 275.152344 -12.96875 273.75 -15.070312 Z M 273.75 -15.070312 "/></g></g></g><g fill="#f7f8fd" fill-opacity="1"><g transform="translate(982.661572, 1005.517486)"><g/></g></g><g fill="#f7f8fd" fill-opacity="1"><g transform="translate(1162.805695, 1005.517486)"><g><path d="M 239.050781 -288.824219 L 37.503906 -288.824219 C 34.699219 -288.824219 28.039062 -287.421875 28.039062 -276.203125 L 28.039062 -249.214844 C 28.039062 -238.347656 34.699219 -236.945312 37.503906 -236.945312 L 239.050781 -236.945312 C 241.855469 -236.945312 248.863281 -238 248.863281 -248.863281 L 248.863281 -276.554688 C 248.863281 -287.769531 241.855469 -288.824219 239.050781 -288.824219 Z M 237.296875 -171.402344 L 56.433594 -171.050781 C 46.269531 -170.347656 37.503906 -164.742188 32.246094 -156.328125 C 30.84375 -153.523438 29.441406 -150.371094 28.742188 -147.214844 L 28.039062 -11.917969 C 28.039062 -1.050781 35.050781 0.351562 37.855469 0.351562 L 70.101562 0.351562 C 72.90625 0.351562 79.917969 -1.050781 79.917969 -11.917969 C 79.917969 -11.917969 80.265625 -119.523438 80.617188 -119.523438 L 237.296875 -119.523438 C 240.101562 -119.523438 247.113281 -120.578125 247.113281 -131.441406 L 247.113281 -159.132812 C 247.113281 -170 240.101562 -171.402344 237.296875 -171.402344 Z M 237.296875 -171.402344 "/></g></g></g><g fill="#f7f8fd" fill-opacity="1"><g transform="translate(1439.682505, 1005.517486)"><g><path d="M 270.246094 -288.824219 L 238 -288.824219 C 234.84375 -288.824219 228.183594 -287.769531 228.183594 -276.90625 L 228.183594 -104.101562 C 228.183594 -93.585938 227.484375 -84.472656 226.429688 -77.8125 C 225.378906 -71.152344 223.277344 -65.894531 220.824219 -62.039062 C 218.019531 -58.535156 214.863281 -56.082031 210.308594 -54.328125 C 205.75 -52.925781 199.441406 -51.875 192.082031 -51.875 L 116.371094 -51.875 C 109.007812 -51.875 102.699219 -52.925781 98.144531 -54.328125 C 93.585938 -56.082031 90.433594 -58.535156 87.628906 -62.039062 C 85.175781 -65.894531 83.070312 -71.152344 81.667969 -77.8125 C 80.617188 -84.472656 79.917969 -93.585938 79.917969 -104.101562 L 79.917969 -276.90625 C 79.917969 -287.769531 73.257812 -288.824219 70.101562 -288.824219 L 38.207031 -288.824219 C 35.050781 -288.824219 28.039062 -287.769531 28.039062 -276.90625 L 28.039062 -109.710938 C 28.039062 -90.082031 29.441406 -73.257812 32.597656 -59.585938 C 35.753906 -45.566406 41.011719 -34 48.019531 -25.238281 C 54.679688 -16.125 64.144531 -9.8125 75.007812 -5.609375 C 85.875 -1.753906 99.195312 0 114.617188 0 L 193.484375 0 C 208.90625 0 222.226562 -1.753906 233.089844 -5.609375 C 244.308594 -9.8125 253.421875 -16.125 260.429688 -25.238281 C 267.441406 -34 272.347656 -45.566406 275.503906 -59.585938 C 278.65625 -73.257812 280.058594 -90.082031 280.058594 -109.710938 L 280.058594 -276.90625 C 280.058594 -287.769531 273.398438 -288.824219 270.246094 -288.824219 Z M 270.246094 -288.824219 "/></g></g></g><g fill="#f7f8fd" fill-opacity="1"><g transform="translate(1747.752135, 1005.517486)"><g><path d="M 197.339844 -172.453125 L 92.183594 -172.453125 C 86.925781 -172.453125 80.265625 -174.554688 80.265625 -191.730469 L 80.265625 -217.667969 C 80.265625 -223.976562 81.320312 -228.882812 83.070312 -232.390625 C 84.472656 -234.492188 86.578125 -236.945312 92.535156 -236.945312 L 235.195312 -236.945312 C 238 -236.945312 245.007812 -238 245.007812 -248.863281 L 245.007812 -276.90625 C 245.007812 -287.769531 238 -288.824219 235.195312 -288.824219 L 84.121094 -288.824219 C 64.84375 -288.824219 50.824219 -282.511719 41.710938 -269.542969 C 32.597656 -256.925781 28.039062 -240.101562 28.039062 -219.769531 L 28.039062 -193.132812 C 28.039062 -168.945312 32.949219 -149.320312 41.710938 -137.050781 C 52.578125 -122.679688 68.699219 -120.578125 83.421875 -120.578125 L 188.574219 -120.578125 C 193.832031 -120.578125 200.84375 -118.472656 200.84375 -101.296875 L 200.84375 -71.152344 C 200.84375 -64.84375 199.792969 -59.9375 197.6875 -56.433594 C 196.285156 -54.328125 194.183594 -51.875 188.226562 -51.875 L 38.554688 -51.875 C 35.402344 -51.875 28.390625 -50.824219 28.390625 -39.957031 L 28.390625 -11.917969 C 28.390625 -1.050781 35.402344 0 38.554688 0 L 196.636719 0 C 215.914062 0 230.285156 -6.660156 239.398438 -19.628906 C 248.164062 -32.246094 252.71875 -48.722656 252.71875 -69.050781 L 252.71875 -99.894531 C 252.71875 -122.679688 248.164062 -140.554688 239.050781 -153.175781 C 229.585938 -165.792969 215.566406 -172.453125 197.339844 -172.453125 Z M 197.339844 -172.453125 "/></g></g></g><g fill="#f7f8fd" fill-opacity="1"><g transform="translate(2028.484203, 1005.517486)"><g><path d="M 70.101562 -288.824219 L 37.855469 -288.824219 C 35.050781 -288.824219 28.039062 -287.421875 28.039062 -276.554688 L 28.039062 -11.917969 C 28.039062 -1.050781 35.050781 0.351562 37.855469 0.351562 L 70.101562 0.351562 C 72.90625 0.351562 79.917969 -1.050781 79.917969 -11.917969 L 79.917969 -276.554688 C 79.917969 -287.421875 72.90625 -288.824219 70.101562 -288.824219 Z M 70.101562 -288.824219 "/></g></g></g><g fill="#f7f8fd" fill-opacity="1"><g transform="translate(2136.429326, 1005.517486)"><g><path d="M 266.738281 -263.234375 C 259.730469 -271.996094 250.617188 -278.65625 239.398438 -282.863281 C 228.535156 -286.71875 215.214844 -288.824219 199.792969 -288.824219 L 114.265625 -288.824219 C 98.84375 -288.824219 85.875 -286.71875 75.007812 -282.863281 C 63.792969 -278.65625 54.679688 -271.996094 47.667969 -263.234375 C 41.011719 -254.472656 35.753906 -242.90625 32.597656 -228.882812 C 29.441406 -215.214844 28.039062 -198.742188 28.039062 -179.113281 L 28.039062 -109.710938 C 28.039062 -90.082031 29.441406 -73.257812 32.597656 -59.585938 C 35.753906 -45.566406 41.011719 -34 47.667969 -25.238281 C 54.679688 -16.125 63.792969 -9.464844 75.007812 -5.609375 C 85.523438 -1.753906 98.84375 0.351562 114.265625 0.351562 L 199.792969 0.351562 C 215.214844 0.351562 228.535156 -1.753906 239.398438 -5.609375 C 250.617188 -9.464844 259.730469 -16.125 266.738281 -24.886719 C 273.75 -34 278.65625 -45.566406 281.8125 -59.585938 C 284.617188 -73.257812 286.367188 -90.082031 286.367188 -109.710938 L 286.367188 -179.113281 C 286.367188 -198.390625 284.617188 -215.214844 281.8125 -228.882812 C 278.65625 -242.90625 273.75 -254.472656 266.738281 -263.234375 Z M 234.140625 -185.070312 L 234.140625 -103.402344 C 234.140625 -93.238281 233.792969 -84.472656 232.390625 -77.464844 C 231.339844 -71.152344 229.234375 -65.546875 226.429688 -62.039062 C 223.976562 -58.183594 220.472656 -55.730469 215.914062 -54.328125 C 211.359375 -52.578125 205.402344 -51.875 198.039062 -51.875 L 116.019531 -51.875 C 108.660156 -51.875 102.699219 -52.578125 98.144531 -54.328125 C 93.585938 -55.730469 90.082031 -58.183594 87.628906 -62.039062 C 84.824219 -65.546875 83.070312 -71.152344 81.667969 -77.464844 C 80.617188 -84.472656 79.917969 -93.238281 79.917969 -103.402344 L 79.917969 -185.070312 C 79.917969 -195.234375 80.617188 -204 81.667969 -211.007812 C 83.070312 -217.667969 84.824219 -222.925781 87.628906 -226.78125 C 90.082031 -230.285156 93.585938 -232.742188 98.144531 -234.492188 C 102.699219 -235.894531 108.660156 -236.945312 116.019531 -236.945312 L 198.039062 -236.945312 C 205.402344 -236.945312 211.359375 -235.894531 215.914062 -234.492188 C 220.472656 -232.742188 223.976562 -230.285156 226.429688 -226.78125 C 229.234375 -222.925781 231.339844 -217.667969 232.390625 -211.007812 C 233.792969 -204 234.140625 -195.234375 234.140625 -185.070312 Z M 234.140625 -185.070312 "/></g></g></g><g fill="#f7f8fd" fill-opacity="1"><g transform="translate(2450.807671, 1005.517486)"><g><path d="M 276.203125 -288.824219 L 245.007812 -288.824219 C 241.855469 -288.824219 235.195312 -287.769531 235.195312 -276.554688 L 235.195312 -65.894531 C 235.195312 -65.546875 235.195312 -65.546875 235.195312 -65.195312 L 233.441406 -65.195312 C 233.089844 -65.195312 232.742188 -65.195312 232.390625 -66.246094 L 121.628906 -263.234375 C 118.824219 -268.492188 116.371094 -272.699219 113.917969 -275.851562 C 111.464844 -279.359375 109.007812 -282.164062 106.554688 -283.914062 C 103.75 -286.019531 100.597656 -287.421875 96.742188 -288.121094 C 93.238281 -288.472656 89.03125 -288.824219 84.472656 -288.824219 L 58.183594 -288.824219 C 48.019531 -288.824219 40.308594 -285.316406 35.402344 -279.007812 C 30.496094 -272.347656 28.039062 -260.78125 28.039062 -243.605469 L 28.039062 -11.917969 C 28.039062 -1.050781 35.050781 0.351562 38.207031 0.351562 L 69.402344 0.351562 C 72.554688 0.351562 79.214844 -1.050781 79.214844 -11.917969 L 79.214844 -222.574219 C 79.214844 -222.925781 79.214844 -223.277344 79.214844 -223.277344 L 80.96875 -223.277344 C 80.96875 -223.277344 81.320312 -223.277344 82.019531 -222.226562 L 193.132812 -25.238281 C 195.9375 -19.628906 198.742188 -15.421875 201.195312 -12.269531 C 203.648438 -8.761719 206.101562 -6.308594 208.90625 -4.558594 C 211.710938 -2.453125 214.863281 -1.402344 218.371094 -0.699219 C 221.523438 0 225.378906 0.351562 230.285156 0.351562 L 255.875 0.351562 C 266.039062 0.351562 273.75 -3.15625 278.65625 -9.8125 C 283.566406 -16.125 286.019531 -27.691406 286.019531 -44.867188 L 286.019531 -276.554688 C 286.019531 -287.769531 279.007812 -288.824219 276.203125 -288.824219 Z M 276.203125 -288.824219 "/></g></g></g><g fill="#ff1616" fill-opacity="1"><g transform="translate(820.090329, 1325.439525)"><g><path d="M 86.472656 -52.796875 L 98.222656 -52.796875 C 99.628906 -52.796875 100.855469 -54.023438 100.855469 -55.425781 L 100.855469 -66.125 C 100.855469 -67.878906 100.152344 -69.457031 98.925781 -70.6875 L 83.492188 -86.472656 C 82.085938 -87.875 80.507812 -88.578125 78.230469 -88.578125 L 28.238281 -88.578125 C 26.132812 -88.578125 24.730469 -88.050781 23.152344 -86.472656 L 7.367188 -70.6875 C 6.3125 -69.632812 5.261719 -67.878906 5.261719 -66.125 L 5.261719 -21.574219 C 5.261719 -19.820312 6.3125 -18.066406 7.367188 -17.015625 L 23.152344 -1.226562 C 24.730469 0.351562 26.132812 0.878906 28.238281 0.878906 L 78.230469 0.878906 C 80.507812 0.878906 82.085938 0.175781 83.492188 -1.226562 L 98.925781 -17.015625 C 100.152344 -18.242188 100.855469 -19.820312 100.855469 -21.574219 L 100.855469 -32.273438 C 100.855469 -33.675781 99.628906 -34.90625 98.222656 -34.90625 L 86.472656 -34.90625 C 85.070312 -34.90625 83.839844 -33.675781 83.839844 -32.273438 L 83.839844 -26.132812 C 83.839844 -24.90625 83.664062 -24.03125 82.613281 -23.152344 L 77 -17.890625 C 76.125 -17.015625 75.421875 -16.488281 74.195312 -16.488281 L 33.152344 -16.488281 C 32.273438 -16.488281 31.570312 -16.839844 30.519531 -17.890625 L 24.90625 -23.152344 C 24.03125 -24.03125 23.679688 -24.90625 23.679688 -26.132812 L 23.679688 -61.566406 C 23.679688 -62.792969 24.03125 -63.671875 24.90625 -64.546875 L 30.519531 -69.808594 C 31.570312 -70.863281 32.273438 -71.210938 33.152344 -71.210938 L 74.195312 -71.210938 C 75.421875 -71.210938 76.125 -70.6875 77 -69.808594 L 82.613281 -64.546875 C 83.664062 -63.671875 83.839844 -62.792969 83.839844 -61.566406 L 83.839844 -55.425781 C 83.839844 -54.023438 85.070312 -52.796875 86.472656 -52.796875 Z M 86.472656 -52.796875 "/></g></g></g><g fill="#ff1616" fill-opacity="1"><g transform="translate(961.271565, 1325.439525)"><g><path d="M 98.925781 -69.808594 L 83.492188 -85.59375 C 82.085938 -87 80.507812 -87.699219 78.230469 -87.699219 L 27.886719 -87.699219 C 25.609375 -87.699219 24.03125 -87 22.625 -85.59375 L 7.191406 -69.808594 C 5.964844 -68.582031 5.261719 -67.003906 5.261719 -65.25 L 5.261719 -2.632812 C 5.261719 -1.226562 6.488281 0 7.894531 0 L 19.644531 0 C 21.046875 0 22.277344 -1.226562 22.277344 -2.632812 L 22.277344 -28.765625 L 83.839844 -28.765625 L 83.839844 -2.632812 C 83.839844 -1.226562 85.070312 0 86.472656 0 L 98.222656 0 C 99.628906 0 100.855469 -1.226562 100.855469 -2.632812 L 100.855469 -65.25 C 100.855469 -67.003906 100.152344 -68.582031 98.925781 -69.808594 Z M 22.277344 -44.027344 L 22.277344 -60.6875 C 22.277344 -61.917969 22.625 -62.792969 23.503906 -63.671875 L 29.117188 -68.933594 L 30.167969 -69.808594 C 30.519531 -70.160156 31.046875 -70.335938 31.921875 -70.335938 L 74.195312 -70.335938 C 74.894531 -70.335938 75.421875 -70.160156 75.949219 -69.808594 L 77 -68.933594 L 82.613281 -63.671875 C 83.492188 -62.792969 83.839844 -61.917969 83.839844 -60.6875 L 83.839844 -44.027344 Z M 22.277344 -44.027344 "/></g></g></g><g fill="#ff1616" fill-opacity="1"><g transform="translate(1102.452802, 1325.439525)"><g><path d="M 101.382812 -70.335938 L 85.59375 -85.769531 C 84.367188 -87 82.789062 -87.699219 81.035156 -87.699219 L 7.894531 -87.699219 C 6.488281 -87.699219 5.261719 -86.472656 5.261719 -85.070312 L 5.261719 -2.632812 C 5.261719 -1.226562 6.488281 0 7.894531 0 L 19.996094 0 C 21.398438 0 22.625 -1.226562 22.625 -2.632812 L 22.625 -19.292969 L 70.160156 -19.292969 L 81.035156 -1.578125 C 81.738281 -0.527344 82.613281 0 83.664062 0 L 96.820312 0 C 98.925781 0 99.976562 -1.929688 98.925781 -3.683594 L 87 -22.800781 L 101.382812 -37.183594 C 102.433594 -38.238281 103.484375 -39.992188 103.484375 -41.746094 L 103.484375 -65.074219 C 103.484375 -67.355469 102.785156 -68.933594 101.382812 -70.335938 Z M 22.625 -70.6875 L 75.421875 -70.6875 C 76.648438 -70.6875 77.527344 -70.335938 78.402344 -69.457031 L 83.664062 -63.847656 L 84.542969 -62.792969 C 84.894531 -62.265625 85.070312 -61.742188 85.070312 -61.039062 L 85.070312 -46.304688 C 85.070312 -45.078125 84.71875 -44.199219 83.839844 -43.324219 L 78.230469 -38.0625 C 77.175781 -37.007812 76.472656 -36.660156 75.597656 -36.660156 L 22.625 -36.660156 Z M 22.625 -70.6875 "/></g></g></g><g fill="#ff1616" fill-opacity="1"><g transform="translate(1246.264051, 1325.439525)"><g/></g></g><g fill="#ff1616" fill-opacity="1"><g transform="translate(1326.953689, 1325.439525)"><g><path d="M 5.261719 -54.726562 C 5.261719 -52.445312 5.964844 -50.867188 7.367188 -49.464844 L 19.644531 -37.535156 C 20.871094 -36.484375 22.453125 -35.605469 24.207031 -35.605469 L 76.300781 -35.605469 C 77.527344 -35.605469 78.402344 -35.253906 79.28125 -34.378906 L 81.910156 -31.222656 C 82.261719 -30.695312 82.4375 -30.167969 82.4375 -29.46875 L 82.4375 -25.257812 C 82.4375 -24.03125 82.085938 -23.152344 81.210938 -22.277344 L 77.351562 -18.769531 C 76.300781 -17.890625 75.597656 -17.363281 74.71875 -17.363281 L 10.875 -17.363281 C 9.472656 -17.363281 8.242188 -16.136719 8.242188 -14.734375 L 8.242188 -2.632812 C 8.242188 -1.226562 9.472656 0 10.875 0 L 79.632812 0 C 81.738281 0 83.140625 -0.527344 84.71875 -2.105469 L 98.75 -16.136719 C 99.804688 -17.1875 100.855469 -18.941406 100.855469 -20.695312 L 100.855469 -35.253906 C 100.855469 -37.535156 100.152344 -39.289062 98.75 -40.515625 L 88.226562 -50.691406 C 87 -51.742188 85.421875 -52.621094 83.664062 -52.621094 L 29.816406 -52.621094 C 28.589844 -52.621094 27.714844 -52.972656 26.835938 -53.847656 L 24.207031 -57.003906 C 23.855469 -57.53125 23.679688 -58.058594 23.679688 -58.757812 L 23.679688 -62.441406 C 23.679688 -63.671875 24.03125 -64.546875 24.90625 -65.425781 L 28.765625 -68.933594 C 29.816406 -69.808594 30.519531 -70.335938 31.398438 -70.335938 L 93.488281 -70.335938 C 94.890625 -70.335938 96.121094 -71.5625 96.121094 -72.964844 L 96.121094 -85.070312 C 96.121094 -86.472656 94.890625 -87.699219 93.488281 -87.699219 L 26.484375 -87.699219 C 24.378906 -87.699219 22.976562 -87.175781 21.398438 -85.59375 L 7.367188 -71.5625 C 6.3125 -70.511719 5.261719 -68.757812 5.261719 -67.003906 Z M 5.261719 -54.726562 "/></g></g></g><g fill="#ff1616" fill-opacity="1"><g transform="translate(1468.134947, 1325.439525)"><g><path d="M 116.640625 -87.699219 L 7.894531 -87.699219 C 6.488281 -87.699219 5.261719 -86.472656 5.261719 -85.070312 L 5.261719 -71.914062 C 5.261719 -70.511719 6.488281 -69.28125 7.894531 -69.28125 L 53.144531 -69.28125 L 53.144531 -2.632812 C 53.144531 -1.226562 54.375 0 55.777344 0 L 68.933594 0 C 70.335938 0 71.5625 -1.226562 71.5625 -2.632812 L 71.5625 -69.28125 L 116.640625 -69.28125 C 118.042969 -69.28125 119.273438 -70.511719 119.273438 -71.914062 L 119.273438 -85.070312 C 119.273438 -86.472656 118.042969 -87.699219 116.640625 -87.699219 Z M 116.640625 -87.699219 "/></g></g></g><g fill="#ff1616" fill-opacity="1"><g transform="translate(1627.72661, 1325.439525)"><g><path d="M 5.261719 -22.453125 C 5.261719 -20.695312 5.964844 -19.117188 7.191406 -17.890625 L 22.625 -2.105469 C 24.03125 -0.703125 25.609375 0 27.886719 0 L 78.230469 0 C 80.507812 0 82.085938 -0.703125 83.492188 -2.105469 L 98.925781 -17.890625 C 100.152344 -19.117188 100.855469 -20.695312 100.855469 -22.453125 L 100.855469 -65.25 C 100.855469 -67.003906 100.152344 -68.582031 98.925781 -69.808594 L 83.492188 -85.59375 C 82.085938 -87 80.507812 -87.699219 78.230469 -87.699219 L 27.886719 -87.699219 C 25.609375 -87.699219 24.03125 -87 22.625 -85.59375 L 7.191406 -69.808594 C 5.964844 -68.582031 5.261719 -67.003906 5.261719 -65.25 Z M 22.277344 -27.011719 L 22.277344 -60.6875 C 22.277344 -61.917969 22.625 -62.792969 23.503906 -63.671875 L 29.117188 -68.933594 L 30.167969 -69.808594 C 30.519531 -70.160156 31.046875 -70.335938 31.921875 -70.335938 L 74.195312 -70.335938 C 74.894531 -70.335938 75.421875 -70.160156 75.949219 -69.808594 L 77 -68.933594 L 82.613281 -63.671875 C 83.492188 -62.792969 83.839844 -61.917969 83.839844 -60.6875 L 83.839844 -27.011719 C 83.839844 -25.785156 83.492188 -24.90625 82.613281 -24.03125 L 77 -18.769531 L 75.949219 -17.890625 C 75.421875 -17.539062 74.894531 -17.363281 74.195312 -17.363281 L 31.921875 -17.363281 C 31.046875 -17.363281 30.519531 -17.539062 30.167969 -17.890625 L 29.117188 -18.769531 L 23.503906 -24.03125 C 22.625 -24.90625 22.277344 -25.785156 22.277344 -27.011719 Z M 22.277344 -27.011719 "/></g></g></g><g fill="#ff1616" fill-opacity="1"><g transform="translate(1768.907867, 1325.439525)"><g><path d="M 101.382812 -70.335938 L 85.59375 -85.769531 C 84.367188 -87 82.789062 -87.699219 81.035156 -87.699219 L 7.894531 -87.699219 C 6.488281 -87.699219 5.261719 -86.472656 5.261719 -85.070312 L 5.261719 -2.632812 C 5.261719 -1.226562 6.488281 0 7.894531 0 L 19.996094 0 C 21.398438 0 22.625 -1.226562 22.625 -2.632812 L 22.625 -19.292969 L 70.160156 -19.292969 L 81.035156 -1.578125 C 81.738281 -0.527344 82.613281 0 83.664062 0 L 96.820312 0 C 98.925781 0 99.976562 -1.929688 98.925781 -3.683594 L 87 -22.800781 L 101.382812 -37.183594 C 102.433594 -38.238281 103.484375 -39.992188 103.484375 -41.746094 L 103.484375 -65.074219 C 103.484375 -67.355469 102.785156 -68.933594 101.382812 -70.335938 Z M 22.625 -70.6875 L 75.421875 -70.6875 C 76.648438 -70.6875 77.527344 -70.335938 78.402344 -69.457031 L 83.664062 -63.847656 L 84.542969 -62.792969 C 84.894531 -62.265625 85.070312 -61.742188 85.070312 -61.039062 L 85.070312 -46.304688 C 85.070312 -45.078125 84.71875 -44.199219 83.839844 -43.324219 L 78.230469 -38.0625 C 77.175781 -37.007812 76.472656 -36.660156 75.597656 -36.660156 L 22.625 -36.660156 Z M 22.625 -70.6875 "/></g></g></g><g fill="#ff1616" fill-opacity="1"><g transform="translate(1912.719159, 1325.439525)"><g><path d="M 24.90625 -63.671875 L 30.519531 -68.933594 C 31.570312 -69.984375 32.273438 -70.335938 33.152344 -70.335938 L 96.46875 -70.335938 C 97.875 -70.335938 99.101562 -71.5625 99.101562 -72.964844 L 99.101562 -85.070312 C 99.101562 -86.472656 97.875 -87.699219 96.46875 -87.699219 L 27.363281 -87.699219 C 25.257812 -87.699219 23.855469 -87.175781 22.277344 -85.59375 L 7.367188 -70.6875 C 6.3125 -69.632812 5.261719 -67.878906 5.261719 -66.125 L 5.261719 -21.75 C 5.261719 -19.46875 5.964844 -17.890625 7.367188 -16.488281 L 22.277344 -1.929688 C 23.503906 -0.703125 25.082031 0 26.835938 0 L 96.46875 0 C 97.875 0 99.101562 -1.226562 99.101562 -2.632812 L 99.101562 -14.382812 C 99.101562 -15.785156 97.875 -17.015625 96.46875 -17.015625 L 33.324219 -17.015625 C 32.097656 -17.015625 31.222656 -17.363281 30.34375 -18.242188 L 24.207031 -24.90625 C 23.855469 -25.433594 23.679688 -25.960938 23.679688 -26.660156 L 23.679688 -35.78125 L 87.875 -35.78125 C 89.277344 -35.78125 90.507812 -37.007812 90.507812 -38.414062 L 90.507812 -50.515625 C 90.507812 -51.917969 89.277344 -53.144531 87.875 -53.144531 L 23.679688 -53.144531 L 23.679688 -60.6875 C 23.679688 -61.917969 24.03125 -62.792969 24.90625 -63.671875 Z M 24.90625 -63.671875 "/></g></g></g></svg>